<?xml version="1.0" encoding="utf-8"?>
<!-- Generator: Adobe Illustrator 26.4.1, SVG Export Plug-In . SVG Version: 6.00 Build 0)  -->
<svg version="1.0" id="Ebene_1" xmlns="http://www.w3.org/2000/svg" xmlns:xlink="http://www.w3.org/1999/xlink" x="0px" y="0px"
	 viewBox="0 0 140.032 61.057" width="140" height="61" style="enable-background:new 0 0 140.032 61.057;" xml:space="preserve">
<path style="fill:#131B2E;" d="M5.883,51.754c-0.233-0.324-0.531-0.585-0.897-0.783c-0.365-0.198-0.805-0.296-1.322-0.296
	c-0.264,0-0.532,0.041-0.805,0.121c-0.275,0.082-0.523,0.206-0.746,0.373c-0.222,0.167-0.402,0.377-0.539,0.631
	c-0.137,0.253-0.206,0.552-0.206,0.896c0,0.346,0.066,0.63,0.197,0.852c0.132,0.223,0.306,0.413,0.524,0.57
	c0.216,0.158,0.465,0.286,0.743,0.387c0.277,0.102,0.568,0.203,0.871,0.305c0.374,0.121,0.75,0.254,1.129,0.395
	c0.379,0.142,0.72,0.327,1.023,0.555c0.304,0.228,0.552,0.517,0.744,0.866c0.192,0.35,0.288,0.793,0.288,1.33
	c0,0.538-0.103,1.001-0.307,1.391c-0.206,0.391-0.471,0.712-0.799,0.966c-0.328,0.253-0.701,0.44-1.121,0.562
	c-0.421,0.122-0.844,0.182-1.27,0.182c-0.325,0-0.648-0.033-0.973-0.098c-0.324-0.066-0.633-0.165-0.927-0.297
	s-0.567-0.299-0.821-0.502C0.416,59.958,0.192,59.725,0,59.462l0.943-0.7c0.233,0.385,0.56,0.707,0.98,0.965
	c0.421,0.259,0.915,0.388,1.483,0.388c0.273,0,0.552-0.043,0.835-0.129c0.284-0.086,0.54-0.218,0.768-0.396
	c0.229-0.177,0.416-0.395,0.562-0.653c0.148-0.258,0.221-0.56,0.221-0.904c0-0.376-0.073-0.687-0.221-0.936
	c-0.146-0.248-0.341-0.456-0.585-0.623c-0.243-0.167-0.521-0.306-0.836-0.418c-0.314-0.112-0.643-0.223-0.988-0.334
	c-0.355-0.111-0.704-0.238-1.049-0.38C1.769,55.2,1.46,55.015,1.186,54.786c-0.273-0.227-0.494-0.508-0.661-0.843
	c-0.167-0.334-0.251-0.745-0.251-1.231c0-0.517,0.103-0.963,0.311-1.338s0.479-0.684,0.814-0.927
	c0.334-0.244,0.704-0.421,1.109-0.532c0.406-0.112,0.806-0.167,1.202-0.167c0.729,0,1.353,0.129,1.869,0.387
	c0.517,0.258,0.907,0.565,1.171,0.92L5.883,51.754z M12.572,60.784h-1.095v-9.79H7.874v-0.973h8.3v0.973h-3.602V60.784z
	 M18.531,56.953h4.743l-2.371-5.716L18.531,56.953z M16.95,60.784h-1.201l4.652-10.763h1.064l4.621,10.763H24.87l-1.185-2.828
	h-5.564L16.95,60.784z M28.914,59.811h2.173c0.81,0,1.518-0.127,2.121-0.38c0.602-0.253,1.102-0.585,1.497-0.996
	c0.395-0.41,0.692-0.879,0.889-1.406c0.198-0.527,0.297-1.069,0.297-1.626s-0.099-1.1-0.297-1.627
	c-0.197-0.527-0.494-0.996-0.889-1.406s-0.895-0.743-1.497-0.996c-0.603-0.254-1.311-0.38-2.121-0.38h-2.173V59.811z M27.819,50.021
	h3.572c0.669,0,1.341,0.112,2.015,0.335c0.674,0.222,1.281,0.56,1.824,1.01c0.542,0.451,0.98,1.014,1.314,1.687
	c0.334,0.675,0.502,1.458,0.502,2.35c0,0.901-0.168,1.687-0.502,2.355c-0.334,0.669-0.772,1.229-1.314,1.681
	c-0.543,0.45-1.15,0.788-1.824,1.01c-0.674,0.223-1.346,0.335-2.015,0.335h-3.572C27.819,60.784,27.819,50.021,27.819,50.021z
	 M42.473,60.784h-1.095v-9.79h-3.603v-0.973h8.3v0.973h-3.602V60.784z M48.192,50.021h1.915v9.061h4.576v1.702h-6.491V50.021z
	 M61.919,56.68l-1.658-4.379l-1.687,4.379H61.919z M59.486,50.021h1.657l4.636,10.763H63.59l-1.003-2.463H57.92l-0.972,2.463h-2.144
	L59.486,50.021z M70.507,59.111c0.497,0,0.994-0.057,1.491-0.174c0.496-0.117,0.944-0.315,1.345-0.593
	c0.4-0.279,0.727-0.656,0.981-1.133c0.252-0.476,0.38-1.079,0.38-1.808c0-0.771-0.128-1.4-0.38-1.886
	c-0.254-0.486-0.581-0.866-0.981-1.14c-0.401-0.274-0.849-0.461-1.345-0.562c-0.497-0.102-0.994-0.152-1.491-0.152h-1.596v7.448
	H70.507z M66.996,50.021h3.815c0.7,0,1.405,0.091,2.113,0.274c0.71,0.182,1.348,0.484,1.916,0.905
	c0.567,0.42,1.028,0.973,1.384,1.656c0.354,0.684,0.531,1.533,0.531,2.547c0,0.942-0.177,1.753-0.531,2.431
	c-0.356,0.679-0.817,1.238-1.384,1.673c-0.568,0.436-1.206,0.757-1.916,0.965c-0.708,0.208-1.413,0.312-2.113,0.312h-3.815V50.021z
	 M78.762,50.021h7.13v1.673h-5.215v2.736h4.941v1.611h-4.941v3.041h5.488v1.702h-7.403V50.021z M88.187,50.021h2.539l5.001,8.057
	h0.03v-8.057h1.916v10.763H95.24l-5.107-8.316h-0.031v8.316h-1.915V50.021z M101.815,59.158h1.718c0.244,0,0.507-0.018,0.791-0.054
	c0.283-0.035,0.544-0.109,0.783-0.221c0.237-0.11,0.435-0.273,0.592-0.485c0.158-0.213,0.236-0.497,0.236-0.852
	c0-0.568-0.193-0.963-0.578-1.185c-0.385-0.224-0.968-0.335-1.748-0.335h-1.794V59.158z M101.815,54.384h1.703
	c0.639,0,1.124-0.126,1.459-0.38c0.334-0.253,0.502-0.613,0.502-1.079c0-0.486-0.172-0.831-0.517-1.034
	c-0.344-0.203-0.882-0.304-1.611-0.304h-1.536V54.384z M99.9,50.006h4.195c0.406,0,0.807,0.048,1.202,0.144
	c0.395,0.096,0.747,0.254,1.056,0.472s0.56,0.499,0.753,0.844c0.192,0.344,0.289,0.76,0.289,1.246c0,0.608-0.173,1.109-0.518,1.505
	c-0.344,0.395-0.795,0.679-1.353,0.851v0.031c0.679,0.091,1.236,0.354,1.673,0.79c0.435,0.436,0.653,1.019,0.653,1.748
	c0,0.588-0.116,1.082-0.349,1.482c-0.234,0.401-0.54,0.722-0.92,0.966c-0.38,0.243-0.816,0.417-1.307,0.524
	c-0.492,0.106-0.991,0.16-1.497,0.16H99.9V50.006z M118.461,56.816c0,0.649-0.112,1.234-0.334,1.756
	c-0.223,0.522-0.527,0.966-0.912,1.33c-0.386,0.365-0.841,0.646-1.369,0.844c-0.526,0.198-1.099,0.296-1.717,0.296
	c-0.618,0-1.191-0.098-1.718-0.296s-0.986-0.479-1.376-0.844c-0.391-0.364-0.694-0.808-0.912-1.33s-0.327-1.107-0.327-1.756v-6.81
	h1.915v6.735c0,0.314,0.041,0.625,0.122,0.934c0.081,0.31,0.216,0.586,0.403,0.828c0.188,0.244,0.435,0.442,0.745,0.593
	c0.309,0.153,0.692,0.229,1.148,0.229c0.455,0,0.838-0.076,1.147-0.229c0.309-0.151,0.557-0.349,0.745-0.593
	c0.187-0.242,0.322-0.518,0.403-0.828c0.081-0.309,0.122-0.62,0.122-0.934v-6.735h1.915V56.816z M124.375,54.643
	c0.273,0,0.546-0.02,0.82-0.062c0.273-0.039,0.52-0.115,0.737-0.227c0.218-0.111,0.398-0.272,0.54-0.479
	c0.141-0.208,0.213-0.473,0.213-0.798c0-0.294-0.066-0.534-0.197-0.722c-0.133-0.188-0.3-0.337-0.502-0.449
	c-0.203-0.111-0.434-0.187-0.692-0.227c-0.258-0.041-0.51-0.062-0.753-0.062h-1.733v3.026
	C122.808,54.643,124.375,54.643,124.375,54.643z M120.893,50.006h3.74c0.507,0,0.998,0.053,1.475,0.159
	c0.476,0.107,0.898,0.282,1.268,0.525c0.371,0.243,0.666,0.563,0.89,0.958c0.223,0.395,0.335,0.877,0.335,1.444
	c0,0.781-0.221,1.416-0.663,1.908c-0.44,0.492-1.041,0.823-1.801,0.996l2.873,4.773h-2.31l-2.493-4.561h-1.399v4.561h-1.915V50.006z
	 M140.032,60.206c-0.547,0.263-1.147,0.468-1.801,0.616c-0.653,0.146-1.407,0.219-2.258,0.219c-0.872,0-1.666-0.138-2.386-0.417
	c-0.72-0.278-1.338-0.669-1.854-1.171c-0.518-0.502-0.921-1.1-1.209-1.793c-0.289-0.694-0.433-1.462-0.433-2.303
	c0-0.861,0.149-1.639,0.448-2.334c0.299-0.694,0.71-1.285,1.231-1.771c0.522-0.487,1.137-0.862,1.847-1.125
	c0.709-0.263,1.479-0.395,2.311-0.395c0.861,0,1.65,0.124,2.364,0.372c0.714,0.249,1.29,0.575,1.725,0.981l-1.322,1.429
	c-0.274-0.305-0.657-0.563-1.148-0.776c-0.492-0.212-1.026-0.318-1.604-0.318c-0.567,0-1.082,0.101-1.543,0.303
	c-0.461,0.203-0.853,0.481-1.178,0.837c-0.325,0.354-0.575,0.77-0.752,1.246c-0.178,0.477-0.266,0.993-0.266,1.551
	c0,0.578,0.088,1.107,0.266,1.588c0.177,0.481,0.43,0.9,0.76,1.254c0.328,0.355,0.729,0.631,1.2,0.828
	c0.472,0.198,1.006,0.297,1.605,0.297c0.82,0,1.535-0.126,2.142-0.38v-2.736h-2.264v-1.581h4.119V60.206z"/>
<path style="fill:#A1BFC5;" d="M0,0v39.43h39.43V0H0z M28.71,8.72c0.9,1.14,1.57,2.45,1.95,3.88h-1.95V8.72z M24.57,5.49
	c1,0.46,1.92,1.05,2.73,1.75v5.36h-2.73V5.49z M20.42,4.47c0.95,0.06,1.86,0.22,2.73,0.49v7.64h-2.73V4.47z M16.28,4.96
	c0.87-0.27,1.78-0.43,2.73-0.49v8.13h-2.73V4.96z M12.14,7.23c0.81-0.69,1.72-1.28,2.72-1.73v7.1h-2.72V7.23z M10.72,8.72v3.88H8.77
	C9.15,11.17,9.82,9.86,10.72,8.72z M30.99,34.98H8.44V15.21c0-0.48,0.03-0.96,0.1-1.43h2.18v3.51h1.42v-3.51h2.72v3.51h1.42v-3.51
	h2.73v3.51h1.41v-3.51h2.73v3.51h1.42v-3.51h2.73v3.51h1.41v-3.51h2.18c0.07,0.47,0.1,0.95,0.1,1.43V34.98z"/>
<path style="fill:#758C94;" d="M100.6,0v39.43h39.43V0H100.6z M118.53,25.32c0,1.58-1.2,2.86-2.74,3.03
	c0.15,0.48,0.25,0.98,0.25,1.51c0,2.82-2.29,5.12-5.12,5.12c-2.82,0-5.12-2.3-5.12-5.12c0-2.83,2.3-5.12,5.12-5.12
	c0.53,0,1.03,0.1,1.51,0.25c0.17-1.54,1.45-2.74,3.03-2.74c0.43,0,0.83,0.09,1.2,0.24l10.52-10.52l-2.11-2.11l1.31-1.32l1.07,1.07
	l0.71-0.72l-1.06-1.06l1.31-1.32l1.07,1.07l0.74-0.74l-1.07-1.07l1.32-1.32l2.11,2.12l0.62-0.62l1.63,1.63l-16.54,16.54
	C118.44,24.49,118.53,24.89,118.53,25.32z M114.01,29.86c0,1.71-1.38,3.09-3.09,3.09c-1.71,0-3.09-1.38-3.09-3.09
	c0-1.71,1.38-3.09,3.09-3.09C112.63,26.77,114.01,28.15,114.01,29.86z"/>
<path style="fill:#9E3331;" d="M50.08,0v39.43h39.43V0H50.08z M70.03,4.45L81.5,28.28H58.57L70.03,4.45z M83.52,34.98H56.08v-4.74
	h3.41v2.37h2.19v-2.37h6.83v2.37h2.38v-2.37h6.83v2.37h2.39v-2.37h3.41V34.98z"/>
</svg>
